name Walk6.mot
datacolumns 19
datarows 25
range 0.84100000 0.86500000
endheader

                time	   L_ground_force_vx	   L_ground_force_vy	   L_ground_force_vz	   L_ground_force_px	   L_ground_force_py	   L_ground_force_pz	   R_ground_force_vx	   R_ground_force_vy	   R_ground_force_vz	   R_ground_force_px	   R_ground_force_py	   R_ground_force_pz	   L_ground_torque_x	   L_ground_torque_y	   L_ground_torque_z	   R_ground_torque_x	   R_ground_torque_y	   R_ground_torque_z	
          0.84100000	         -5.14277475	        110.35339085	         -8.75462322	         -0.19189164	          0.00000000	          0.00933433	          0.00000000	         -0.00000009	         -0.00000001	         -0.00000000	          0.00000000	         -0.00000000	          0.00000000	         -0.06628013	          0.00000000	          0.00000000	         -0.00000000	          0.00000000	
          0.84200000	         -5.88658054	        118.52593033	         -9.32290846	         -0.20303274	          0.00000000	          0.00984859	          0.00000000	         -0.00000009	         -0.00000001	         -0.00000000	          0.00000000	         -0.00000000	          0.00000000	         -0.05962655	          0.00000000	          0.00000000	         -0.00000000	          0.00000000	
          0.84300000	         -6.67519347	        126.96840199	         -9.90549886	         -0.21437062	          0.00000000	          0.01036996	          0.00000000	         -0.00000009	         -0.00000001	         -0.00000000	          0.00000000	         -0.00000000	          0.00000000	         -0.05210842	          0.00000000	          0.00000000	         -0.00000000	          0.00000000	
          0.84400000	         -7.50952034	        135.67102266	        -10.50131768	         -0.22587675	          0.00000000	          0.01089696	          0.00000000	         -0.00000009	         -0.00000001	         -0.00000000	          0.00000000	         -0.00000000	          0.00000000	         -0.04367648	          0.00000000	          0.00000000	         -0.00000000	          0.00000000	
          0.84500000	         -8.39036343	        144.62202565	        -11.10913351	         -0.23751923	          0.00000000	          0.01142792	          0.00000000	         -0.00000009	         -0.00000001	         -0.00000000	          0.00000000	         -0.00000000	          0.00000000	         -0.03428061	          0.00000000	          0.00000000	         -0.00000000	          0.00000000	
          0.84600000	         -9.31840746	        153.80752507	        -11.72755092	         -0.24926265	          0.00000000	          0.01196102	          0.00000000	         -0.00000009	         -0.00000001	         -0.00000000	          0.00000000	         -0.00000000	          0.00000000	         -0.02387005	          0.00000000	          0.00000000	         -0.00000000	          0.00000000	
          0.84700000	        -10.29420584	        163.21137622	        -12.35500107	         -0.26106790	          0.00000000	          0.01249427	          0.00000000	         -0.00000009	         -0.00000001	         -0.00000000	          0.00000000	         -0.00000000	          0.00000000	         -0.01239352	          0.00000000	          0.00000000	         -0.00000000	          0.00000000	
          0.84800000	        -11.31816589	        172.81504435	        -12.98973309	         -0.27289245	          0.00000000	          0.01302550	          0.00000000	         -0.00000009	         -0.00000001	         -0.00000000	          0.00000000	         -0.00000000	          0.00000000	          0.00020046	          0.00000000	          0.00000000	         -0.00000000	          0.00000000	
          0.84900000	        -12.39053233	        182.59752195	        -13.62980950	         -0.28469210	          0.00000000	          0.01355256	          0.00000001	         -0.00000009	         -0.00000001	         -0.00000000	          0.00000000	         -0.00000000	          0.00000000	          0.01396236	          0.00000000	          0.00000000	         -0.00000000	          0.00000000	
          0.85000000	        -13.51136894	        192.53534110	        -14.27310764	         -0.29642381	          0.00000000	          0.01407343	          0.00000001	         -0.00000009	         -0.00000001	         -0.00000000	          0.00000000	         -0.00000000	          0.00000000	          0.02893993	          0.00000000	          0.00000000	         -0.00000000	          0.00000000	
          0.85100000	        -14.68054051	        202.60270703	        -14.91732599	         -0.30804759	          0.00000000	          0.01458639	          0.00000001	         -0.00000009	         -0.00000001	         -0.00000000	          0.00000000	         -0.00000000	          0.00000000	          0.04517634	          0.00000000	          0.00000000	         -0.00000000	          0.00000000	
          0.85200000	        -15.89769795	        212.77177954	        -15.55999449	         -0.31952703	          0.00000000	          0.01508992	          0.00000001	         -0.00000009	         -0.00000001	         -0.00000000	          0.00000000	         -0.00000000	          0.00000000	          0.06270928	          0.00000000	          0.00000000	         -0.00000000	          0.00000000	
          0.85300000	        -17.16226911	        223.01313617	        -16.19848923	         -0.33082922	          0.00000000	          0.01558266	          0.00000001	         -0.00000009	         -0.00000001	         -0.00000000	          0.00000000	         -0.00000000	          0.00000000	          0.08157090	          0.00000000	          0.00000000	         -0.00000000	          0.00000000	
          0.85400000	        -18.47345607	        233.29642656	        -16.83005115	         -0.34192463	          0.00000000	          0.01606343	          0.00000001	         -0.00000008	         -0.00000001	         -0.00000000	          0.00000000	         -0.00000000	          0.00000000	          0.10178853	          0.00000000	          0.00000000	         -0.00000000	          0.00000000	
          0.85500000	        -19.83023667	        243.59117841	        -17.45180742	         -0.35278698	          0.00000000	          0.01653112	          0.00000001	         -0.00000008	         -0.00000001	         -0.00000000	          0.00000000	         -0.00000000	          0.00000000	          0.12338572	          0.00000000	          0.00000000	         -0.00000000	          0.00000000	
          0.85600000	        -21.23136684	        253.86766432	        -18.06079469	         -0.36339305	          0.00000000	          0.01698472	          0.00000001	         -0.00000008	         -0.00000001	         -0.00000000	          0.00000000	         -0.00000000	          0.00000000	          0.14638311	          0.00000000	          0.00000000	         -0.00000000	          0.00000000	
          0.85700000	        -22.67538046	        264.09770640	        -18.65398423	         -0.37372253	          0.00000000	          0.01742332	          0.00000001	         -0.00000007	         -0.00000000	         -0.00000000	          0.00000000	         -0.00000000	          0.00000000	          0.17079879	          0.00000000	          0.00000000	         -0.00000000	          0.00000000	
          0.85800000	        -24.16058613	        274.25530227	        -19.22830979	         -0.38375785	          0.00000000	          0.01784610	          0.00000001	         -0.00000006	         -0.00000000	         -0.00000000	          0.00000000	         -0.00000000	          0.00000000	          0.19664780	          0.00000000	          0.00000000	         -0.00000000	          0.00000000	
          0.85900000	        -25.68506241	        284.31699997	        -19.78069922	         -0.39348404	          0.00000000	          0.01825232	          0.00000001	         -0.00000006	         -0.00000000	         -0.00000000	          0.00000000	         -0.00000000	          0.00000000	          0.22394096	          0.00000000	          0.00000000	         -0.00000000	          0.00000000	
          0.86000000	        -27.24665355	        294.26201215	        -20.30810995	         -0.40288852	          0.00000000	          0.01864131	          0.00000002	         -0.00000005	         -0.00000000	          0.00000000	          0.00000000	          0.00000000	          0.00000000	          0.25268309	          0.00000000	          0.00000000	         -0.00000000	          0.00000000	
          0.86100000	        -28.84296722	        304.07211470	        -20.80756777	         -0.41196098	          0.00000000	          0.01901253	          0.00000002	         -0.00000004	         -0.00000000	          0.00000000	          0.00000000	          0.00000000	          0.00000000	          0.28287084	          0.00000000	          0.00000000	         -0.00000000	          0.00000000	
          0.86200000	        -30.47137480	        313.73140644	        -21.27620715	         -0.42069323	          0.00000000	          0.01936549	          0.00000002	         -0.00000003	          0.00000000	          0.00000000	          0.00000000	          0.00000000	          0.00000000	          0.31449055	          0.00000000	          0.00000000	         -0.00000000	          0.00000000	
          0.86300000	        -32.12901467	        323.22601144	        -21.71131104	         -0.42907902	          0.00000000	          0.01969981	          0.00000002	         -0.00000002	          0.00000000	          0.00000000	          0.00000000	          0.00000000	          0.00000000	          0.34751670	          0.00000000	          0.00000000	         -0.00000000	          0.00000000	
          0.86400000	        -33.81279995	        332.54379136	        -22.11034783	         -0.43711393	          0.00000000	          0.02001519	          0.00000002	         -0.00000001	          0.00000000	          0.00000000	          0.00000000	          0.00000000	          0.00000000	          0.38191123	          0.00000000	          0.00000000	         -0.00000000	          0.00000000	
          0.86500000	        -35.51943240	        341.67411101	        -22.47100284	         -0.44479520	          0.00000000	          0.02031140	          0.00000002	          0.00000000	          0.00000000	          0.00000000	          0.00000000	          0.00000000	          0.00000000	          0.41762392	          0.00000000	          0.00000000	         -0.00000000	          0.00000000	
